<?xml version="1.0" encoding="UTF-8"?>
<svg id="Layer_1" xmlns="http://www.w3.org/2000/svg" version="1.1" viewBox="0 0 688.548 700.003">
  <!-- Generator: Adobe Illustrator 30.0.0, SVG Export Plug-In . SVG Version: 2.1.1 Build 123)  -->
  <path d="M58.578,86.528c6.55,10,62.5-40.2,111.35-29.025,51.525,11.8,100.35,93.1,121.2,342.5,31.374,28.195,60.941,58.338,88.525,90.25,8.833,10.233,17.275,20.4,25.325,30.5,1.207-11.771,3.119-23.458,5.725-35,9.084-39.577,25.916-76.963,49.525-110-7.937-82.081-36.94-160.721-84.2-228.3C350.278,111.328,261.028-14.497,162.378,1.378,98.778,11.578,51.728,76.303,58.578,86.528Z" fill="#63bf6a"/>
  <path d="M554.228,699.953c-8-64.175-11.2-119-12.5-161.225-2.35-80.8,2.5-113.525,22.5-143.9,4.825-7.375,32.2-49.375,64.5-46.575,36.65,3.2,55.325,60.35,59.05,58.425,4.375-2.25-9-88.575-63.3-110.775-65-26.575-157.8,51.75-195,128.85-9.94,22.47-17.134,46.057-21.425,70.25-14.566,67.307-20.53,136.191-17.75,205l163.925-.05Z" fill="#74d74d"/>
  <path d="M.178,298.328c3.625-11.175,61.7-6.475,113.5,7.325,62.5,16.65,175,58.6,291.275,215.15,33.083,53.706,49.201,116.141,46.25,179.15h-247.325c2.626-38.546,1.159-77.263-4.375-115.5-4.748-63.947-25.922-125.586-61.475-178.95C80.253,328.928-4.397,312.453.178,298.328Z" fill="#78dc50"/>
  <path d="M376.728,483.028c-.012,24.204-19.643,43.815-43.847,43.803-24.204-.012-43.815-19.643-43.803-43.847s19.643-43.815,43.847-43.803c11.621.006,22.764,4.627,30.978,12.847,8.229,8.215,12.845,19.372,12.825,31Z" fill="#fff"/>
  <path d="M493.603,483.028c-.012,24.204-19.643,43.815-43.847,43.803s-43.815-19.643-43.803-43.847c.012-24.204,19.643-43.815,43.847-43.803,11.621.006,22.764,4.627,30.978,12.847,8.229,8.215,12.845,19.372,12.825,31Z" fill="#fff"/>
</svg>