<svg style="display:none !important;" xmlns="http://www.w3.org/2000/svg">

    <symbol id="device-desktop" viewBox="0 0 44 40">
        <g fill="currentColor">
            <path
                    d="m40 0h-36c-2.2 0-4 1.8-4 4v24c0 2.2 1.8 4 4 4h14v4h-4v4h16v-4h-4v-4h14c2.2 0 4-1.8 4-4v-24c0-2.2-1.8-4-4-4zm0 28h-36v-24h36z"/>
        </g>
    </symbol>

    <symbol id=";" viewBox="0 0 26 44">
        <g fill="currentColor">
            <path
                    d="m21 0h-16c-2.8 0-5 2.2-5 5v34c0 2.8 2.2 5 5 5h16c2.8 0 5-2.2 5-5v-34c0-2.8-2.2-5-5-5zm-8 42c-1.7 0-3-1.3-3-3s1.3-3 3-3 3 1.3 3 3-1.3 3-3 3zm9-8h-18v-28h18z"/>
        </g>
    </symbol>

    <symbol id="icon-profile" viewBox="0 0 13 16">
        <g fill="currentColor">
            <path fill-rule="evenodd" clip-rule="evenodd"
                  d="M6.31579 8.46627C8.63545 8.46627 10.4948 6.58282 10.4948 4.23313C10.4948 1.88348 8.63545 0 6.31579 0C3.99615 0 2.13673 1.88348 2.13673 4.23313C2.13673 6.58282 3.99615 8.46627 6.31579 8.46627ZM6.31579 10.5391C2.90882 10.5391 0 11.0839 0 13.2601C0 15.4356 2.89112 16 6.31579 16C9.72194 16 12.6316 15.4552 12.6316 13.2789C12.6316 11.1027 9.74046 10.5391 6.31579 10.5391Z"/>
        </g>
    </symbol>

    <symbol id="icon-search" viewBox="0 0 16 16">
        <g fill="currentColor">
            <path
                    d="M15.7812 13.8344L12.6656 10.7188C12.525 10.5781 12.3344 10.5 12.1344 10.5H11.625C12.4875 9.39688 13 8.00937 13 6.5C13 2.90937 10.0906 0 6.5 0C2.90937 0 0 2.90937 0 6.5C0 10.0906 2.90937 13 6.5 13C8.00937 13 9.39688 12.4875 10.5 11.625V12.1344C10.5 12.3344 10.5781 12.525 10.7188 12.6656L13.8344 15.7812C14.1281 16.075 14.6031 16.075 14.8938 15.7812L15.7781 14.8969C16.0719 14.6031 16.0719 14.1281 15.7812 13.8344ZM6.5 10.5C4.29063 10.5 2.5 8.7125 2.5 6.5C2.5 4.29063 4.2875 2.5 6.5 2.5C8.70938 2.5 10.5 4.2875 10.5 6.5C10.5 8.70938 8.7125 10.5 6.5 10.5Z"/>
        </g>
    </symbol>

    <symbol id="icon-arrow" viewBox="0 0 16 10" fill="none">
        <path d="M14 2L8 8L2 2" stroke="currentColor" stroke-width="3" stroke-linecap="round" stroke-linejoin="round"/>
    </symbol>


    <symbol id="icon-form-send" viewBox="0 0 24 24">
        <g fill="none">
            <path d="M10.3076 13.6919L15.1538 8.8457" stroke="#4F5665" stroke-width="2"
                  stroke-linecap="round" stroke-linejoin="round"/>
            <path
                    d="M3.2326 10.27C2.42568 9.86652 2.52346 8.68509 3.38572 8.41978L19.1948 3.55543C19.9621 3.31935 20.6808 4.03802 20.4447 4.8053L15.5804 20.6144C15.315 21.4767 14.1336 21.5745 13.7302 20.7675L10.38 14.0673C10.2833 13.8738 10.1264 13.7169 9.93283 13.6201L3.2326 10.27Z"
                    stroke="#4F5665" stroke-width="2" stroke-linecap="round" stroke-linejoin="round"/>
        </g>
    </symbol>

    <symbol id="icon-footer-facebook" viewBox="0 0 28 28">
        <path
                d="M14 0C6.2832 0 0 6.2832 0 14C0 21.7168 6.2832 28 14 28C21.7168 28 28 21.7224 28 14C28 6.2776 21.7224 0 14 0ZM17.8808 8.3048C17.8808 8.4224 17.7856 8.5176 17.668 8.5176H15.9824C15.568 8.5176 15.232 8.8536 15.232 9.268V11.032H17.6288C17.6344 11.032 17.64 11.032 17.6456 11.032C17.7632 11.0432 17.8472 11.144 17.836 11.2616L17.6232 13.748C17.612 13.86 17.5224 13.944 17.4104 13.944H15.2264V22.1928C15.2264 22.3104 15.1312 22.4056 15.0136 22.4056H12.0008C11.8832 22.4056 11.788 22.3104 11.788 22.1928V14.0672V13.9328H10.2816C10.164 13.9328 10.0688 13.8376 10.0688 13.72V11.2336C10.0688 11.116 10.164 11.0208 10.2816 11.0208H11.788V8.624C11.788 6.9552 13.1432 5.6 14.812 5.6H17.6568C17.7744 5.6 17.8696 5.6952 17.8696 5.8128V8.3048H17.8808Z"
                fill="currentColor"/>
    </symbol>

    <symbol id="icon-footer-x" viewBox="0 0 28 28">
        <path
                d="M14 28C21.732 28 28 21.732 28 14C28 6.26802 21.732 0 14 0C6.26802 0 0 6.26802 0 14C0 21.732 6.26802 28 14 28Z"
                fill="currentColor"/>
        <path
                d="M15.3335 12.9287L20.5459 7H19.3109L14.7829 12.1467L11.1691 7H7L12.466 14.7834L7 21H8.235L13.0137 15.5636L16.8309 21H21L15.3335 12.9287ZM8.68037 7.91102H10.5776L14.1347 12.8884L14.6871 13.6639L19.3103 20.1334H17.4131L8.68037 7.91102Z"
                fill="white"/>
    </symbol>

    <symbol id="icon-footer-instagram" viewBox="0 0 28 28">
        <path
                d="M14 28C21.732 28 28 21.732 28 14C28 6.26801 21.732 0 14 0C6.26802 0 0 6.26801 0 14C0 21.732 6.26802 28 14 28Z"
                fill="currentColor"/>
        <path
                d="M18.2002 7.17432H9.80018C8.34183 7.17432 7.17517 8.34098 7.17517 9.79932V18.1993C7.17517 19.6577 8.34183 20.8243 9.80018 20.8243H18.2002C19.6585 20.8243 20.8252 19.6577 20.8252 18.1993V9.79931C20.8252 8.34098 19.6585 7.17432 18.2002 7.17432ZM19.2502 8.74932V11.0826H16.9168V8.74932H19.2502ZM12.0752 12.5993C12.4835 12.016 13.2419 11.6076 14.0002 11.6076C14.7585 11.6076 15.5169 12.016 15.9252 12.5993C16.2168 13.0077 16.3919 13.4743 16.3919 13.9993C16.3919 15.341 15.2835 16.391 14.0002 16.391C12.7168 16.391 11.6085 15.341 11.6085 13.9993C11.6085 13.4743 11.7835 13.0077 12.0752 12.5993ZM19.4835 18.1993C19.4835 18.8993 18.9002 19.4827 18.2002 19.4827H9.80018C9.10018 19.4827 8.51684 18.8993 8.51684 18.1993V12.5993H10.5585C10.3835 13.0077 10.2668 13.5327 10.2668 13.9993C10.2668 16.041 11.9585 17.7327 14.0002 17.7327C16.0418 17.7327 17.7335 16.041 17.7335 13.9993C17.7335 13.5327 17.6168 13.0076 17.4418 12.5993H19.4835L19.4835 18.1993Z"
                fill="white"/>
    </symbol>

    <symbol id="icon-footer-telegram" viewBox="0 0 28 28">
        <path
                d="M14 28C21.732 28 28 21.732 28 14C28 6.26801 21.732 0 14 0C6.26801 0 0 6.26801 0 14C0 21.732 6.26801 28 14 28Z"
                fill="currentColor"/>
        <path fill-rule="evenodd" clip-rule="evenodd"
              d="M6.33719 13.852C10.4185 12.0738 13.14 10.9015 14.5017 10.3352C18.3896 8.71802 19.1975 8.43711 19.7241 8.42783C19.8399 8.42579 20.0988 8.4545 20.2666 8.5906C20.4082 8.70553 20.4472 8.86078 20.4658 8.96974C20.4845 9.0787 20.5077 9.32692 20.4892 9.52087C20.2785 11.7346 19.3669 17.1067 18.9031 19.5862C18.7068 20.6353 18.3204 20.9871 17.9463 21.0215C17.1333 21.0963 16.516 20.4842 15.7285 19.968C14.4963 19.1603 13.8002 18.6575 12.6042 17.8693C11.222 16.9585 12.118 16.4578 12.9057 15.6397C13.1119 15.4255 16.694 12.1673 16.7633 11.8717C16.772 11.8348 16.7801 11.697 16.6982 11.6242C16.6163 11.5515 16.4955 11.5763 16.4083 11.5961C16.2848 11.6242 14.3163 12.9252 10.5031 15.4993C9.94433 15.883 9.43825 16.0699 8.98482 16.0601C8.48494 16.0493 7.52339 15.7775 6.80857 15.5451C5.93182 15.2601 5.235 15.1094 5.29568 14.6254C5.32728 14.3733 5.67445 14.1155 6.33719 13.852Z"
              fill="white"/>
    </symbol>
    <!-- slider -->
    <symbol id="icon-star" viewBox="0 0 13 12">
        <path
                d="M7.57453 4.37175L6.41494 1.88179C6.33311 1.70607 6.08095 1.70607 5.99912 1.88179L4.83953 4.37176C4.80618 4.44337 4.73766 4.49268 4.65858 4.50197L1.90931 4.82483C1.71529 4.84761 1.63737 5.08513 1.78082 5.21652L3.81342 7.07826C3.87188 7.13181 3.89806 7.21159 3.88254 7.28895L3.34298 9.97845C3.30491 10.1683 3.5089 10.315 3.67939 10.2205L6.0952 8.88118C6.16468 8.84266 6.24938 8.84266 6.31887 8.88118L8.73467 10.2205C8.90516 10.315 9.10916 10.1683 9.07108 9.97845L8.53152 7.28895C8.516 7.21159 8.54218 7.13181 8.60064 7.07826L10.6332 5.21652C10.7767 5.08513 10.6988 4.84761 10.5047 4.82483L7.75548 4.50197C7.67641 4.49268 7.60788 4.44337 7.57453 4.37175Z"
                fill="white" stroke="white" stroke-width="2" stroke-linecap="round"
                stroke-linejoin="round"/>
    </symbol>

    <symbol id="icon-heart" viewBox="0 0 25 24">
        <path
                d="M12.8481 20C12.8481 20 3.84814 14.9875 3.84814 8.97234C3.84814 2.95722 10.8481 2.45597 12.8481 7.16221C14.8481 2.45597 21.8481 2.95722 21.8481 8.97234C21.8481 14.9875 12.8481 20 12.8481 20Z"
                fill="inherit" stroke-width="2" stroke-linecap="round" stroke-linejoin="round"/>
    </symbol>
    <symbol id="icon-share" viewBox="0 0 24 24" fill="none" xmlns="http://www.w3.org/2000/svg">
        <path
                d="M13 21L20 4L3 11L9.26468 13.6849C9.73671 13.8872 10.1128 14.2633 10.3151 14.7353L13 21Z"
                stroke="white" stroke-width="2" stroke-linecap="round" stroke-linejoin="round"/>
    </symbol>

    <!-- cta 2-->
    <symbol id="icon-cta-location" viewBox="0 0 80 80">
        <circle cx="40" cy="40" r="40" fill="#CFF2FF"/>
        <path
                d="M35.8662 32.1685C34.9562 32.1685 34.2412 32.8997 34.2412 33.7935C34.2412 34.6872 34.9725 35.4185 35.8662 35.4185C36.76 35.4185 37.4911 34.6872 37.4911 33.7935C37.4911 32.8997 36.76 32.1685 35.8662 32.1685Z"
                fill="#39B7E9"/>
        <path
                d="M55.8725 28.19C54.5075 25.0212 51.5013 23.25 47.3088 23.25H33.6913C28.475 23.25 24.25 27.475 24.25 32.6912V46.3088C24.25 50.5013 26.0213 53.5075 29.19 54.8725C29.4988 55.0025 29.8563 54.9213 30.0838 54.6938L55.6938 29.0838C55.9375 28.84 56.0188 28.4825 55.8725 28.19ZM38.1113 39.89C37.4775 40.5075 36.6488 40.8 35.82 40.8C34.9913 40.8 34.1625 40.4912 33.5288 39.89C31.8713 38.33 30.0513 35.8438 30.75 32.8862C31.3675 30.205 33.74 29.0025 35.82 29.0025C37.9 29.0025 40.2725 30.205 40.89 32.9025C41.5725 35.8438 39.7525 38.33 38.1113 39.89Z"
                fill="#39B7E9"/>
        <path
                d="M52.637 53.3605C52.9945 53.718 52.9457 54.303 52.507 54.5467C51.077 55.343 49.3382 55.7492 47.307 55.7492H33.6895C33.2182 55.7492 33.0232 55.1967 33.3482 54.8717L43.1632 45.0567C43.4882 44.7317 43.992 44.7317 44.317 45.0567L52.637 53.3605Z"
                fill="#39B7E9"/>
        <path
                d="M56.7528 32.6895V46.307C56.7528 48.3382 56.3465 50.0932 55.5503 51.507C55.3065 51.9457 54.7215 51.9782 54.364 51.637L46.044 43.317C45.719 42.992 45.719 42.4882 46.044 42.1632L55.859 32.3482C56.2003 32.0232 56.7528 32.2182 56.7528 32.6895Z"
                fill="#39B7E9"/>
    </symbol>

    <symbol id="icon-cta-business" viewBox="0 0 80 80" fill="none">
        <circle cx="40" cy="40" r="40" fill="#ECFFD4"/>
        <path
                d="M26.4427 60.7066C26.267 60.7066 26.0445 60.6859 25.8834 60.5229C25.7253 60.3599 25.7019 60.1406 25.7019 59.9451C25.7107 55.5031 25.7107 50.8093 25.7019 44.7227C25.7019 44.4026 25.7751 44.0293 26.3548 43.9967C26.9726 43.9611 27.4762 43.8041 27.892 43.5137C28.0179 43.4277 28.1408 43.3833 28.2755 43.3833C28.4424 43.3833 28.5829 43.4544 28.6737 43.5077C29.2915 43.8722 29.9297 44.0559 30.5739 44.0559C31.218 44.0559 31.9061 43.8693 32.597 43.4959C32.6937 43.4455 32.8254 43.3744 32.9894 43.3744C33.1094 43.3744 33.2236 43.4129 33.3349 43.49C33.8765 43.8633 34.4738 44.0441 35.1677 44.0441C35.5278 44.0441 35.9084 43.9967 36.333 43.8989C36.7048 43.813 37.0093 43.7329 37.2582 43.5314C37.3782 43.4366 37.5071 43.3892 37.6476 43.3892C37.7706 43.3892 37.8935 43.4277 38.0253 43.5048C38.6489 43.8722 39.2931 44.0619 39.943 44.0619C40.593 44.0619 41.284 43.8722 41.9808 43.4988C42.1097 43.4307 42.2238 43.3981 42.341 43.3981C42.4581 43.3981 42.581 43.4337 42.704 43.5048C43.3511 43.887 44.0128 44.0826 44.6628 44.0826C45.3127 44.0826 45.9774 43.89 46.6391 43.5107C46.7737 43.4337 46.8967 43.3951 47.0197 43.3951C47.1427 43.3951 47.2686 43.4337 47.3974 43.5107C48.0122 43.8781 48.6505 44.0619 49.3005 44.0619C49.9505 44.0619 50.6268 43.8781 51.3236 43.5166C51.4232 43.4633 51.5579 43.404 51.716 43.404C51.8448 43.404 51.9707 43.4455 52.0907 43.5255C52.5299 43.8189 53.0599 43.9937 53.7128 44.0619C53.9587 44.0885 54.2866 44.1804 54.2925 44.6812C54.3306 47.7689 54.3247 50.9071 54.3189 53.9444C54.3159 55.9446 54.313 57.9449 54.3189 59.9451C54.3189 60.1258 54.2984 60.357 54.1344 60.5229C53.9675 60.6918 53.7303 60.7096 53.5664 60.7096C50.8464 60.7037 48.1323 60.7007 45.4181 60.7007H40.0221C40.0221 60.7007 39.9987 60.7007 39.987 60.7007H34.4855C31.8065 60.7007 29.1275 60.7007 26.4485 60.7066H26.4427ZM39.8903 46.4029C36.8249 46.4029 34.1078 49.1913 34.0756 52.368C34.061 53.8792 34.708 55.4172 35.8557 56.5877C36.9391 57.693 38.3239 58.3301 39.662 58.3301C39.7469 58.3301 39.8347 58.3301 39.9196 58.3212C39.9255 58.3212 39.946 58.3212 39.9489 58.3212C40.025 58.3242 40.1041 58.3271 40.1802 58.3271C43.2281 58.3271 45.8603 55.6542 45.9305 52.4894C45.9657 50.9189 45.3918 49.4284 44.3143 48.2934C43.19 47.1081 41.6529 46.4384 39.9899 46.4058H39.8933L39.8903 46.4029Z"
                fill="#8AC55D"/>
        <path
                d="M32.9864 43.6737C33.0421 43.6737 33.1006 43.6915 33.168 43.7359C33.8004 44.1715 34.4709 44.3404 35.1648 44.3404C35.5688 44.3404 35.9816 44.2841 36.3974 44.1863C36.7634 44.1034 37.1323 44.0085 37.4397 43.7626C37.5071 43.7092 37.5744 43.6826 37.6447 43.6826C37.7149 43.6826 37.794 43.7092 37.876 43.7566C38.564 44.1626 39.2521 44.3523 39.9401 44.3523C40.6662 44.3523 41.3894 44.1419 42.1155 43.7537C42.1946 43.7122 42.2648 43.6885 42.338 43.6885C42.4112 43.6885 42.4756 43.7092 42.5547 43.7566C43.2545 44.1715 43.9571 44.373 44.6598 44.373C45.3625 44.373 46.074 44.1656 46.7796 43.7626C46.8645 43.7122 46.9406 43.6855 47.0168 43.6855C47.0929 43.6855 47.1632 43.7092 47.2481 43.7596C47.9303 44.1656 48.6124 44.3523 49.2976 44.3523C50.0178 44.3523 50.7381 44.1478 51.4554 43.7744C51.5491 43.727 51.6311 43.6944 51.713 43.6944C51.7804 43.6944 51.8507 43.7152 51.9268 43.7655C52.4567 44.1182 53.0569 44.2841 53.6806 44.3493C53.906 44.373 53.9939 44.4293 53.9968 44.6782C54.0583 49.7662 54.0056 54.8512 54.0261 59.9391C54.0261 60.2829 53.9236 60.4073 53.5693 60.4073C53.5693 60.4073 53.5693 60.4073 53.5664 60.4073C50.8845 60.4014 48.2025 60.3985 45.5206 60.3985C43.6761 60.3985 41.8315 60.3985 39.987 60.3985C38.1483 60.3985 36.3096 60.3985 34.4709 60.3985C31.7948 60.3985 29.1217 60.3985 26.4456 60.4073C26.4456 60.4073 26.4456 60.4073 26.4427 60.4073C26.0884 60.4073 25.9947 60.2918 25.9947 59.9421C26.0035 54.869 26.0035 49.7929 25.9947 44.7197C25.9947 44.4382 26.0415 44.3078 26.3695 44.29C26.9668 44.2574 27.5494 44.1093 28.0559 43.7566C28.132 43.7033 28.2023 43.6796 28.2726 43.6796C28.3516 43.6796 28.4307 43.7092 28.5244 43.7655C29.2066 44.1685 29.8888 44.3552 30.571 44.3552C31.2912 44.3552 32.0115 44.1478 32.7317 43.7626C32.8225 43.7152 32.9015 43.6737 32.9864 43.6737ZM39.659 58.6264C39.7498 58.6264 39.8435 58.6264 39.9343 58.6175C40.0162 58.6205 40.0982 58.6234 40.1802 58.6234C43.4008 58.6234 46.1501 55.7905 46.2233 52.4954C46.2994 49.0046 43.518 46.1747 39.9928 46.1065C39.9577 46.1065 39.9225 46.1065 39.8903 46.1065C36.7019 46.1065 33.818 48.9394 33.7828 52.365C33.7506 55.6661 36.6609 58.6264 39.659 58.6264ZM32.9864 43.081C32.7522 43.081 32.5678 43.1788 32.4594 43.2381C31.8094 43.5877 31.1741 43.7626 30.5739 43.7626C29.9737 43.7626 29.4027 43.5966 28.823 43.2529C28.703 43.1818 28.5156 43.0869 28.2784 43.0869C28.0881 43.0869 27.9037 43.1492 27.7309 43.2677C27.362 43.5255 26.9082 43.6678 26.346 43.6974C25.9215 43.7211 25.415 43.9167 25.4179 44.7197C25.4238 50.833 25.4238 55.5268 25.4179 59.9421C25.4179 60.0843 25.4179 60.4607 25.6843 60.7303C25.9244 60.9733 26.2348 61 26.4514 61C29.1304 60.9941 31.8065 60.9911 34.4826 60.9911H39.9987C40.0162 60.9911 40.0338 60.9911 40.0514 60.9911H45.5323C47.9156 60.9911 50.7322 60.9911 53.5752 61C53.7069 61 54.0846 61 54.354 60.7244C54.597 60.4785 54.6233 60.1584 54.6233 59.9362C54.6146 57.9389 54.6175 55.9091 54.6233 53.9444C54.6292 50.9071 54.6321 47.763 54.597 44.6723C54.5941 44.3641 54.4799 43.8367 53.7538 43.7626C53.1506 43.7003 52.6617 43.5403 52.2635 43.2736C52.0937 43.161 51.9151 43.1047 51.7277 43.1047C51.5052 43.1047 51.3207 43.1877 51.2036 43.2499C50.5478 43.5907 49.9124 43.7626 49.3122 43.7626C48.712 43.7626 48.1352 43.5966 47.5584 43.2499C47.3827 43.1432 47.21 43.0929 47.0314 43.0929C46.8528 43.0929 46.6859 43.1432 46.5044 43.247C45.8866 43.6026 45.2718 43.7804 44.6745 43.7804C44.0772 43.7804 43.4653 43.5996 42.8621 43.244C42.6952 43.1462 42.5225 43.0958 42.3497 43.0958C42.177 43.0958 42.0218 43.1403 41.852 43.2321C41.1962 43.5848 40.5579 43.7626 39.9518 43.7626C39.3458 43.7626 38.769 43.5937 38.1834 43.247C38.0048 43.1432 37.835 43.0899 37.6564 43.0899C37.4514 43.0899 37.2553 43.161 37.0854 43.2973C36.8834 43.4603 36.6111 43.5314 36.2774 43.6085C35.8733 43.7003 35.5132 43.7478 35.1765 43.7478C34.5441 43.7478 33.9995 43.5848 33.5076 43.247C33.3495 43.1373 33.1767 43.081 32.9981 43.081H32.9864ZM39.659 58.0338C38.4001 58.0338 37.0884 57.4322 36.0607 56.3802C34.9715 55.266 34.3538 53.8051 34.3655 52.3709C34.3947 49.3484 36.9742 46.6992 39.8874 46.6992C39.9167 46.6992 39.9489 46.6992 39.9782 46.6992C41.5651 46.7288 43.029 47.3689 44.0977 48.4949C45.1195 49.5736 45.667 50.99 45.6319 52.4806C45.5645 55.4883 43.0671 58.0278 40.1743 58.0278C40.1011 58.0278 40.0279 58.0278 39.9548 58.0219C39.946 58.0219 39.9372 58.0219 39.9284 58.0219C39.9167 58.0219 39.905 58.0219 39.8933 58.0219C39.8142 58.0278 39.7322 58.0278 39.6532 58.0278L39.659 58.0338Z"
                fill="#8AC55D"/>
        <path
                d="M31.5811 29.4469C31.2912 29.4381 30.9984 29.4321 30.7086 29.4321C30.3836 29.4321 30.0586 29.4381 29.7307 29.444H29.6984C29.6253 29.444 29.4027 29.444 29.2446 29.284C29.1012 29.1358 29.0895 28.9402 29.0895 28.8039C29.0895 28.7269 29.0924 28.6232 29.0895 28.555C29.025 28.552 28.9284 28.552 28.8377 28.552C28.6796 28.552 28.5244 28.552 28.3663 28.5491C28.2111 28.5491 28.053 28.5461 27.8978 28.5461C27.6929 28.5461 27.4879 28.5491 27.283 28.5609C27.2595 28.5609 27.239 28.5609 27.2156 28.5609C26.5978 28.5609 26.5978 28.0186 26.5978 27.8379C26.5978 26.8363 26.5949 25.8347 26.592 24.8302V23.5411C26.5861 23.2892 26.5861 23.0344 26.5891 22.7825C26.5891 22.1958 26.5891 21.5883 26.5773 20.9927C26.5744 20.8445 26.5861 20.6282 26.7384 20.4712C26.8877 20.3141 27.0985 20.2963 27.2654 20.2963C29.8653 20.3023 32.4623 20.3023 35.0594 20.3023H40.0045C40.0045 20.3023 40.025 20.3023 40.0367 20.3023H52.6646C52.9632 20.3023 53.1594 20.3023 53.3058 20.4534C53.4522 20.6045 53.4522 20.7971 53.4522 21.0875L53.4463 23.1766C53.4405 24.7264 53.4376 26.2762 53.4405 27.826C53.4405 27.9831 53.4258 28.1816 53.3029 28.3357C53.1331 28.552 52.8637 28.552 52.7759 28.552H52.7202C52.5241 28.5431 52.325 28.5402 52.1259 28.5402H51.3646C51.2212 28.5431 51.0748 28.5402 50.9313 28.5402C50.9313 28.5402 50.902 28.5402 50.8932 28.5402C50.8932 28.5491 50.8932 28.5609 50.8932 28.5728C50.8991 28.8839 50.902 29.1091 50.7439 29.2721C50.5858 29.4351 50.375 29.4351 50.0588 29.4351C49.8744 29.4351 49.2419 29.4321 49.0838 29.4321C48.8672 29.4321 48.6476 29.4321 48.4309 29.441C48.4309 29.441 48.3958 29.441 48.3929 29.441C48.3167 29.441 48.0825 29.441 47.9244 29.2603C47.819 29.1388 47.778 28.9788 47.8014 28.7684C47.8014 28.7476 47.8014 28.7269 47.8014 28.7032C47.8014 28.6498 47.8014 28.5935 47.8073 28.5402C47.7985 28.5402 47.7868 28.5402 47.7721 28.5402C45.1254 28.5431 42.4756 28.5461 39.8289 28.5461C37.1821 28.5461 34.7812 28.5461 32.2545 28.5431C32.2486 28.5431 32.2428 28.5431 32.2369 28.5431C32.2398 28.5876 32.2369 28.632 32.2369 28.6765C32.2369 28.6943 32.234 28.7121 32.2369 28.7298C32.2486 28.8128 32.2867 29.0647 32.1227 29.2543C31.9617 29.444 31.7099 29.444 31.625 29.444H31.5752L31.5811 29.4469ZM31.8094 23.8612C31.4376 23.8612 31.0072 23.8612 30.5797 23.8819C30.2811 23.8938 30.0996 24.0923 30.0937 24.4094C30.0937 24.5931 30.1376 24.7353 30.2342 24.8331C30.3543 24.9576 30.5651 25.0228 30.8403 25.0228C34.9832 25.0228 39.1262 25.0257 43.2662 25.0257H48.7237C48.9696 25.0257 49.2009 25.008 49.4088 24.9783C49.7338 24.9309 49.8861 24.7472 49.8773 24.4183C49.8656 24.1012 49.687 23.9086 49.3678 23.873C49.2214 23.8552 49.0692 23.8552 48.9257 23.8552H40.0104C39.9957 23.8552 39.9811 23.8552 39.9665 23.8552H31.8094V23.8612Z"
                fill="#8AC55D"/>
        <path
                d="M27.2683 20.5927H27.2712C29.8566 20.5986 32.4419 20.5986 35.0272 20.5986C36.6873 20.5986 38.3474 20.5986 40.0045 20.5986C41.9457 20.5986 43.8869 20.5986 45.828 20.5986C48.1059 20.5986 50.3867 20.5986 52.6646 20.5986C53.1594 20.5986 53.1623 20.6015 53.1623 21.0875C53.1565 23.3337 53.1477 25.5799 53.1506 27.829C53.1506 28.1253 53.0774 28.2616 52.7817 28.2616C52.7671 28.2616 52.7524 28.2616 52.7378 28.2616C52.5358 28.2527 52.3367 28.2527 52.1347 28.2527C51.8799 28.2527 51.6252 28.2557 51.3705 28.2557C51.23 28.2557 51.0865 28.2557 50.9459 28.2498C50.9372 28.2498 50.9284 28.2498 50.9196 28.2498C50.6883 28.2498 50.6034 28.3268 50.6092 28.5846C50.618 29.1388 50.6063 29.1447 50.0588 29.1447C50.053 29.1447 50.0471 29.1447 50.0412 29.1447C49.725 29.1447 49.4088 29.1417 49.0926 29.1417C48.873 29.1417 48.6505 29.1417 48.4309 29.1506C48.4221 29.1506 48.4104 29.1506 48.4016 29.1506C48.1645 29.1506 48.0737 29.0528 48.1001 28.8098C48.1089 28.7358 48.0942 28.6617 48.103 28.5876C48.1381 28.3298 48.0327 28.2527 47.778 28.2527C45.1429 28.2557 42.5079 28.2587 39.8728 28.2587C37.2377 28.2587 34.8017 28.2587 32.2633 28.2557C32.0349 28.2557 31.9148 28.3061 31.9529 28.5609C31.9646 28.632 31.9441 28.7091 31.9529 28.7832C31.9939 29.0588 31.8943 29.1565 31.6338 29.1565C31.6221 29.1565 31.6074 29.1565 31.5928 29.1565C31.3 29.1477 31.0043 29.1417 30.7115 29.1417C30.3836 29.1417 30.0556 29.1477 29.7277 29.1536C29.7189 29.1536 29.7131 29.1536 29.7043 29.1536C29.4671 29.1536 29.3852 29.0647 29.3881 28.8128C29.3969 28.2587 29.3881 28.2587 28.8435 28.2587C28.5302 28.2587 28.2169 28.2498 27.9037 28.2498C27.6929 28.2498 27.4821 28.2527 27.2712 28.2646C27.2537 28.2646 27.239 28.2646 27.2215 28.2646C26.9228 28.2646 26.8965 28.0898 26.8965 27.8379C26.8965 26.4066 26.8906 24.9754 26.8848 23.5411C26.8848 22.6907 26.8906 21.8372 26.8731 20.9868C26.8672 20.6756 26.9697 20.5927 27.2712 20.5927M39.9694 23.5648C38.6138 23.5648 37.2582 23.5648 35.8997 23.5648C34.708 23.5648 33.5164 23.5648 32.3247 23.5648C32.3042 23.5648 32.2838 23.5648 32.2633 23.5648C32.1139 23.5648 31.9617 23.5648 31.8124 23.5648C31.3995 23.5648 30.9838 23.5648 30.571 23.5856C30.1054 23.6063 29.8126 23.9412 29.8068 24.4064C29.798 24.9842 30.1728 25.3221 30.8462 25.3221C34.954 25.3221 39.0647 25.325 43.1725 25.325C45.0258 25.325 46.8791 25.325 48.7325 25.325C48.9755 25.325 49.2214 25.3102 49.4615 25.2746C49.9417 25.2035 50.1935 24.8894 50.1789 24.4123C50.1642 23.953 49.8714 23.633 49.4088 23.5826C49.2507 23.5648 49.0926 23.5619 48.9345 23.5619C46.9787 23.5619 45.02 23.5619 43.0641 23.5619C42.0335 23.5619 41.0029 23.5619 39.9752 23.5619M27.2683 20C27.0604 20 26.7589 20.0267 26.5305 20.2637C26.2758 20.5275 26.2846 20.8831 26.2875 20.9986C26.2992 21.5942 26.2992 22.2017 26.2992 22.7885C26.2992 23.0403 26.2992 23.2922 26.2992 23.5411V24.7857C26.3051 25.8021 26.3109 26.8185 26.3109 27.8349C26.3109 28.7535 26.9492 28.8543 27.2215 28.8543C27.2478 28.8543 27.2742 28.8543 27.3035 28.8543C27.4791 28.8454 27.6694 28.8395 27.9037 28.8395C28.0588 28.8395 28.214 28.8395 28.3663 28.8424C28.5127 28.8424 28.6561 28.8454 28.8025 28.8454C28.8025 28.9847 28.8259 29.2662 29.0426 29.4884C29.2036 29.6544 29.4262 29.7374 29.7043 29.7374H29.7424C30.1142 29.7285 30.4246 29.7255 30.7115 29.7255C31.0218 29.7255 31.3029 29.7314 31.5723 29.7403C31.5928 29.7403 31.6133 29.7403 31.6338 29.7403C31.9441 29.7403 32.1871 29.6425 32.3511 29.4499C32.4887 29.2899 32.5531 29.0854 32.5473 28.8424C34.9891 28.8424 37.4309 28.8454 39.8728 28.8454C42.3146 28.8454 44.9643 28.8454 47.5116 28.8395C47.4999 29.0825 47.5701 29.2958 47.7136 29.4588C47.8776 29.6425 48.1089 29.7374 48.4016 29.7374H48.4485C48.6388 29.7314 48.8437 29.7285 49.0926 29.7285C49.2507 29.7285 49.4059 29.7285 49.564 29.7285C49.7221 29.7285 49.8802 29.7285 50.0383 29.7285H50.0559C50.4102 29.7285 50.7146 29.7285 50.9606 29.4766C51.1392 29.2929 51.1831 29.0736 51.1919 28.8365C51.2534 28.8365 51.3119 28.8365 51.3705 28.8365C51.4993 28.8365 51.6281 28.8365 51.757 28.8365C51.8829 28.8365 52.0088 28.8365 52.1347 28.8365C52.363 28.8365 52.5475 28.8395 52.7144 28.8454C52.7378 28.8454 52.7583 28.8454 52.7817 28.8454C53.0716 28.8454 53.3058 28.7595 53.4756 28.5876C53.7099 28.3476 53.7391 28.0364 53.7391 27.8201C53.7391 26.2851 53.7391 24.7531 53.745 23.2181C53.745 22.5069 53.7479 21.7928 53.7508 21.0816C53.7508 20.7705 53.7508 20.4741 53.5195 20.2371C53.2853 20 53.0013 20 52.6705 20H40.0543C40.0397 20 40.025 20 40.0075 20H35.0301C32.4448 20.0059 29.8595 20.0059 27.2742 20C27.2742 20 27.2712 20 27.2683 20ZM43.0554 24.1516C45.0112 24.1516 46.9699 24.1516 48.9257 24.1516C49.0604 24.1516 49.2039 24.1516 49.3356 24.1693C49.5054 24.1871 49.5786 24.2642 49.5845 24.4301C49.5903 24.6079 49.5464 24.6583 49.3678 24.685C49.1717 24.7146 48.955 24.7294 48.7237 24.7294H43.1637C39.0559 24.7294 34.9452 24.7294 30.8374 24.7294C30.65 24.7294 30.5007 24.6909 30.4392 24.6257C30.4011 24.5872 30.3806 24.5131 30.3836 24.4123C30.3865 24.1842 30.5241 24.1782 30.5885 24.1753C31.0101 24.1575 31.4376 24.1545 31.8065 24.1545H32.3189C33.5105 24.1545 34.7022 24.1545 35.8938 24.1545H39.9635C39.987 24.1545 40.0075 24.1545 40.028 24.1516H43.0554Z"
                fill="#8AC55D"/>
        <path
                d="M54.0553 42.595C53.1096 42.595 52.1991 42.035 51.7394 41.1638C51.7248 41.1371 51.7101 41.1104 51.6984 41.0808C51.227 42.0379 50.4482 42.5506 49.4147 42.5743H49.3444C48.3079 42.5743 47.5262 42.0705 47.0197 41.0719C46.5307 42.0646 45.7519 42.5684 44.695 42.5684C43.6234 42.5595 42.8416 42.0557 42.341 41.0719C41.8725 42.0231 41.1025 42.5358 40.0836 42.5654H39.9899C38.9505 42.5654 38.1688 42.0646 37.6593 41.0749C37.185 42.0379 36.4062 42.5506 35.3726 42.5654H35.3258C34.2923 42.5654 33.5076 42.0646 32.9864 41.0749C32.5238 42.0231 31.7538 42.5328 30.7291 42.5624H30.6383C29.6194 42.5624 28.8201 42.0528 28.3048 41.0778C27.8773 41.9639 26.9228 42.5773 25.9508 42.5773C25.8425 42.5773 25.7341 42.5684 25.6287 42.5536C24.4371 42.3846 23.5236 41.4838 23.3596 40.3104C23.2835 39.771 23.2952 39.2347 23.304 38.7131C23.3099 38.4939 23.3128 38.2716 23.3099 38.0523C23.3099 37.8745 23.3567 37.7323 23.4562 37.6315C23.6114 37.4715 23.8281 37.4715 23.9569 37.4715C33.4959 37.4774 43.0319 37.4775 52.5709 37.4775H54.2164C54.3833 37.4775 55.0537 37.4834 55.2236 37.4834C55.4812 37.4834 55.7418 37.4834 55.9994 37.4715H56.0551C56.1956 37.4715 56.3976 37.4893 56.547 37.6464C56.6992 37.8064 56.708 38.0227 56.7021 38.1738C56.6875 38.5561 56.6904 38.9502 56.6904 39.3295C56.6904 39.5221 56.6904 39.7118 56.6904 39.9044C56.6846 41.1253 55.8501 42.198 54.6614 42.5121C54.4652 42.5654 54.2603 42.5921 54.0553 42.5921V42.595Z"
                fill="#8AC55D"/>
        <path
                d="M56.0492 37.7738C56.3157 37.7738 56.4152 37.8686 56.4035 38.1679C56.3801 38.7457 56.3976 39.3265 56.3947 39.9073C56.3888 40.9978 55.651 41.9461 54.5853 42.2306C54.4096 42.278 54.231 42.2987 54.0524 42.2987C53.2268 42.2987 52.4128 41.8157 51.9941 41.0245C51.8858 40.82 51.8038 40.6037 51.675 40.3163C51.3207 41.5342 50.5917 42.2543 49.4059 42.278C49.3854 42.278 49.362 42.278 49.3415 42.278C48.1323 42.278 47.412 41.5223 47.0109 40.2807C46.6361 41.5194 45.91 42.272 44.695 42.272C44.6862 42.272 44.6774 42.272 44.6686 42.272C43.4535 42.2602 42.7216 41.5046 42.3322 40.2689C41.9779 41.5105 41.2459 42.2335 40.0719 42.2691C40.0426 42.2691 40.0162 42.2691 39.987 42.2691C38.7865 42.2691 38.0487 41.5134 37.6447 40.2807C37.2904 41.5134 36.5496 42.2483 35.3639 42.2661C35.3492 42.2661 35.3346 42.2661 35.3229 42.2661C34.1195 42.2661 33.3817 41.5016 32.9659 40.2866C32.6234 41.5075 31.8768 42.2306 30.7173 42.2632C30.691 42.2632 30.6617 42.2632 30.6354 42.2632C29.4437 42.2632 28.6971 41.5016 28.2901 40.3015C28.1994 40.5415 28.1408 40.7104 28.0706 40.8734C27.7046 41.7149 26.8291 42.278 25.9479 42.278C25.8542 42.278 25.7605 42.272 25.6668 42.2572C24.601 42.1061 23.7959 41.3179 23.6466 40.2659C23.5412 39.528 23.6085 38.7872 23.6026 38.0464C23.6026 37.7856 23.7461 37.7649 23.9569 37.7649C34.0434 37.7708 44.127 37.7708 54.2134 37.7708C54.5501 37.7708 54.8839 37.7738 55.2206 37.7738C55.4841 37.7738 55.7447 37.7738 56.0082 37.7619C56.0229 37.7619 56.0375 37.7619 56.0521 37.7619M56.0521 37.1693C56.0316 37.1693 56.0082 37.1693 55.9877 37.1693C55.7652 37.1782 55.5222 37.1811 55.2206 37.1811C55.0537 37.1811 54.8869 37.1811 54.72 37.1811C54.5501 37.1811 54.3833 37.1811 54.2134 37.1811H51.7892C42.5108 37.1811 33.2353 37.1811 23.9569 37.1752C23.8017 37.1752 23.4855 37.1752 23.2454 37.4211C23.0903 37.5812 23.0112 37.7945 23.0141 38.0553C23.0141 38.2686 23.0141 38.482 23.0083 38.7072C22.9966 39.2376 22.9849 39.7888 23.0668 40.3518C23.2513 41.6557 24.2643 42.6602 25.5877 42.8469C25.7078 42.8647 25.8278 42.8736 25.9508 42.8736C26.8789 42.8736 27.7661 42.3995 28.3077 41.6468C28.9958 42.6217 29.9122 42.8588 30.6383 42.8588C30.6705 42.8588 30.7027 42.8588 30.7349 42.8588C31.6953 42.8321 32.4682 42.4084 32.9923 41.6438C33.6862 42.6217 34.5997 42.8617 35.3258 42.8617H35.3756C36.3447 42.8469 37.1264 42.4232 37.6622 41.6468C38.3444 42.6247 39.2608 42.8617 39.9899 42.8617C40.0221 42.8617 40.0572 42.8617 40.0924 42.8617C40.8155 42.841 41.7085 42.5891 42.3468 41.6527C43.0202 42.6158 43.9308 42.8588 44.6657 42.8647H44.6979C45.4386 42.8647 46.358 42.6247 47.0255 41.6498C47.7048 42.6306 48.6183 42.8706 49.3473 42.8706C49.3737 42.8706 49.4 42.8706 49.4235 42.8706C50.1584 42.8558 51.0631 42.6069 51.7072 41.6586C52.2576 42.4172 53.1418 42.8884 54.0583 42.8884C54.2896 42.8884 54.5179 42.8588 54.7405 42.7995C56.0551 42.4498 56.9803 41.2586 56.9861 39.9073C56.9861 39.7147 56.9861 39.5221 56.9861 39.3295C56.9861 38.9532 56.9832 38.565 56.9978 38.1886C57.0037 38.0701 57.0154 37.7145 56.7607 37.4449C56.5089 37.1782 56.1693 37.1782 56.058 37.1782L56.0521 37.1693Z"
                fill="#8AC55D"/>
        <path
                d="M24.9465 36.0077C24.7386 36.0077 24.5015 36.0077 24.3814 35.8062C24.2614 35.6047 24.3697 35.3913 24.4693 35.2046L25.0461 34.0875C25.5262 33.1599 26.0064 32.2324 26.4778 31.302C26.6652 30.9316 26.9638 30.8841 27.2039 30.8841C27.9037 30.8841 28.5976 30.8871 29.2885 30.8871H39.5156C43.8547 30.8871 48.1938 30.8871 52.5329 30.8753C53.1155 30.8753 53.4522 31.0886 53.7069 31.6131C54.1549 32.5347 54.6409 33.4563 55.1094 34.3482L55.5281 35.1453C55.654 35.3883 55.7652 35.5958 55.6422 35.8002C55.5193 36.0047 55.2821 36.0047 55.0303 36.0047H24.9495L24.9465 36.0077Z"
                fill="#8AC55D"/>
        <path
                d="M52.5329 31.1745C53.0013 31.1745 53.2355 31.3257 53.4405 31.7465C54.0202 32.9407 54.6497 34.1112 55.2675 35.2876C55.4754 35.6876 55.4695 35.7113 55.0303 35.7113C50.0178 35.7113 45.0024 35.7113 39.9899 35.7113C37.8408 35.7113 35.6918 35.7113 33.5427 35.7113C30.6764 35.7113 27.8129 35.7113 24.9495 35.7113C24.5747 35.7113 24.5542 35.6817 24.7299 35.3439C25.4003 34.043 26.0767 32.7451 26.7384 31.4383C26.8467 31.222 26.9931 31.1834 27.201 31.1834C27.201 31.1834 27.2039 31.1834 27.2068 31.1834C27.9066 31.1834 28.6093 31.1864 29.309 31.1864C30.0088 31.1864 30.7613 31.1864 31.4903 31.1864H31.5313C34.2015 31.1864 36.8688 31.1864 39.539 31.1864C43.8693 31.1864 48.1996 31.1864 52.5299 31.1745C52.5299 31.1745 52.5329 31.1745 52.5358 31.1745M52.5358 30.5819H52.5299C47.9859 30.5937 43.4126 30.5937 39.539 30.5937H29.3061C28.6064 30.5937 27.9066 30.5937 27.2068 30.5908C27.0253 30.5908 26.5071 30.5937 26.2172 31.1686C25.7458 32.0991 25.2598 33.0414 24.7884 33.9541C24.5952 34.3275 24.4049 34.6979 24.2116 35.0713C24.1062 35.2757 23.9276 35.6195 24.1355 35.9632C24.3405 36.307 24.724 36.307 24.9524 36.307H55.0332C55.3114 36.307 55.6891 36.307 55.897 35.9602C56.1019 35.6135 55.9292 35.2817 55.7886 35.015C55.6481 34.7483 55.5076 34.4786 55.367 34.2119C54.8986 33.3229 54.4155 32.4013 53.9704 31.4887C53.6659 30.8634 53.2238 30.5849 52.5387 30.5849L52.5358 30.5819Z"
                fill="#8AC55D"/>
        <path
                d="M41.3221 51.476C41.0498 51.4553 40.9414 51.393 40.9209 51.153V50.7678C40.9356 50.59 41.0117 50.5278 41.2079 50.5307C41.6236 50.5396 42.0394 50.5544 42.4522 50.5218C43.0319 50.4774 43.4272 50.0773 43.4155 49.6032C43.4008 49.058 43.0027 48.6935 42.3878 48.6757C42.0218 48.6638 41.6558 48.652 41.2899 48.6757C40.9883 48.6964 40.877 48.6016 40.8946 48.2875C40.9151 47.9141 40.8126 47.5704 40.473 47.36C40.1948 47.1881 39.9021 47.1526 39.6063 47.3215C39.2521 47.523 39.091 47.8489 39.1115 48.246C39.1291 48.5483 39.0588 48.6579 38.725 48.6876C37.2904 48.815 36.5321 50.0447 36.5936 51.1441C36.658 52.2672 37.5949 53.2155 38.81 53.2836C39.0325 53.2955 39.091 53.3725 39.0969 53.574V53.9533C39.0764 54.2111 38.971 54.2141 38.5377 54.217C38.4147 54.217 38.2947 54.217 38.1717 54.217V54.223C37.9638 54.223 37.7559 54.2141 37.551 54.223C37.0152 54.2556 36.6082 54.6497 36.6141 55.1238C36.6228 55.6068 37.0181 55.995 37.5539 56.0246C37.9082 56.0424 38.2624 56.0572 38.6138 56.0246C38.9915 55.9891 39.1115 56.1106 39.1086 56.5047C39.1027 57.1803 39.5566 57.5893 40.1392 57.5093C40.6252 57.4411 40.9122 57.0914 40.9151 56.4662C40.9151 56.1432 41.0176 56.0513 41.3279 56.0276C42.5049 55.9446 43.4213 54.9371 43.4184 53.7607C43.4184 52.5487 42.5225 51.5649 41.3191 51.476H41.3221ZM38.8919 51.476C38.6431 51.4819 38.3825 51.2123 38.3913 50.9841C38.4001 50.7411 38.6636 50.4685 38.8978 50.4981C39.0061 50.5129 39.0647 50.5455 39.0998 50.59V51.3901C39.0705 51.4404 39.0091 51.476 38.8919 51.476ZM41.1347 54.22C41.0088 54.2289 40.9502 54.1933 40.9209 54.14V53.3784C40.9473 53.3251 41 53.2866 41.1083 53.2777C41.3865 53.2481 41.5592 53.4525 41.5856 53.737C41.6149 54.0837 41.4128 54.2052 41.1376 54.22H41.1347Z"
                fill="#8AC55D"/>
    </symbol>

    <symbol id="icon-cta-discover" viewBox="0 0 80 80" fill="none">
        <circle cx="40" cy="40" r="40" fill="#FFDFDF"/>
        <path
                d="M38.9404 28.9881C33.4515 28.9881 28.9999 33.4316 28.9999 38.9105C28.9999 44.3895 33.4515 48.8329 38.9404 48.8329C44.4294 48.8329 48.8809 44.3895 48.8809 38.9105C48.8809 33.4316 44.4294 28.9881 38.9404 28.9881ZM40.9845 41.2355C40.9285 41.3109 40.853 41.3667 40.7943 41.403C40.6517 41.4951 40.5063 41.5928 40.3665 41.6849C40.0925 41.8663 39.8073 42.0561 39.5165 42.232C39.2872 42.3687 39.0607 42.5194 38.837 42.6646C38.6888 42.7623 38.5378 42.8599 38.3868 42.9576C38.0121 43.1949 37.6066 43.4572 37.1509 43.7559C37.1033 43.7866 37.0586 43.8173 37.0111 43.848C36.7063 44.049 36.3903 44.2555 36.0659 44.4481C35.8954 44.5486 35.7192 44.6546 35.571 44.783C35.3361 44.9868 35.1236 44.9002 35.0453 44.8528C34.9754 44.8109 34.9195 44.7523 34.8831 44.6798C34.816 44.543 34.8496 44.4146 34.8608 44.3671C34.9083 44.1048 34.9531 43.8424 35.0006 43.5828C35.104 43.0051 35.2131 42.405 35.3166 41.8161C35.3865 41.4281 35.4536 41.0401 35.5207 40.6522C35.5878 40.267 35.6549 39.8818 35.7248 39.4967C35.7584 39.3097 35.7919 39.1199 35.8255 38.9384C35.8786 38.6482 35.9345 38.3439 35.9849 38.0481C36.0212 37.836 36.1414 37.7439 36.2337 37.702C36.4378 37.6155 36.6056 37.7299 36.6615 37.7662L36.8489 37.8946C37.0838 38.0537 37.3242 38.2183 37.5619 38.3802C37.5731 38.3886 37.5899 38.397 37.6094 38.4081C37.6961 38.4584 37.8387 38.5393 37.9254 38.7124C37.9338 38.7263 37.9394 38.7431 37.945 38.7598C37.9506 38.771 37.9534 38.7849 37.9562 38.7961C37.9562 38.8045 37.9646 38.8184 37.9674 38.8352C37.9869 38.891 38.0121 38.9719 38.0149 39.0668C38.0149 39.1534 38.0401 39.2427 38.0848 39.332C38.2218 39.6111 38.549 39.8539 38.8621 39.907C39.0159 39.9321 39.139 39.9488 39.2257 39.9125C39.6059 39.7451 39.8939 39.946 40.0477 40.0521C40.0701 40.0688 40.0925 40.0828 40.112 40.0968C40.2379 40.1777 40.3609 40.2642 40.4811 40.348C40.5874 40.4233 40.6853 40.4931 40.7887 40.5601C40.8726 40.6159 40.9677 40.6885 41.0236 40.8001C41.0935 40.9425 41.0767 41.1043 40.9845 41.2327V41.2355ZM43.0173 33.4651C42.9418 33.9117 42.8607 34.3806 42.7684 34.8941C42.6566 35.5277 42.5419 36.1697 42.4301 36.7921L42.3602 37.18C42.3155 37.4285 42.2707 37.6797 42.226 37.9281C42.1673 38.2602 42.1057 38.5951 42.047 38.9273C42.0358 38.9887 42.0247 39.0501 42.0135 39.1115C41.9771 39.3152 41.938 39.5274 41.91 39.7339C41.8792 39.9516 41.7646 40.0493 41.6751 40.094C41.5856 40.1386 41.4402 40.1693 41.2529 40.066C41.0572 39.9572 40.881 39.8288 40.7104 39.7088C40.6489 39.6641 40.593 39.6251 40.5343 39.5832C40.5231 39.5748 40.5063 39.5664 40.4895 39.5553C40.3973 39.5022 40.2463 39.4101 40.1484 39.212C40.1428 39.198 40.1344 39.1841 40.1288 39.1701C40.1176 39.145 40.1093 39.1171 40.1065 39.092V39.0836C40.0953 39.0389 40.0785 38.958 40.0841 38.8631C40.0925 38.7124 40.0617 38.5672 39.9946 38.4305C39.8073 38.0509 39.3627 37.7885 38.96 37.8248C38.8398 37.836 38.7363 37.8639 38.6329 37.9169C38.4148 38.0285 38.1771 38.0062 37.9757 37.8555C37.6961 37.649 37.3997 37.4536 37.1089 37.2638L37.0698 37.2359C36.9971 37.1884 36.9048 37.1186 36.8517 37.0126C36.7818 36.8674 36.7985 36.7056 36.8992 36.5744C36.9523 36.5046 37.0194 36.4572 37.081 36.4181C37.3298 36.2562 37.5815 36.0943 37.8248 35.938C38.0373 35.8012 38.2582 35.6617 38.4707 35.5221L38.6245 35.4216C38.9153 35.2319 39.2173 35.0365 39.5221 34.8495C39.7905 34.6848 40.0617 34.509 40.3218 34.3359C40.456 34.2494 40.593 34.1573 40.73 34.0708L40.9341 33.9396C41.2585 33.7302 41.594 33.5153 41.9268 33.3088C41.9575 33.2892 41.9911 33.2697 42.0219 33.2502C42.1225 33.1888 42.2204 33.1302 42.2987 33.0632C42.2987 33.0632 42.3015 33.0604 42.3043 33.0576C42.5028 32.865 42.6929 32.9041 42.7908 32.9459C42.8831 32.985 42.9586 33.0548 43.0005 33.1413C43.0704 33.2837 43.0341 33.4148 43.0201 33.4651H43.0173Z"
                fill="#F53838"/>
        <path
                d="M57.1605 55.3083L52.5859 50.5299C55.2619 47.4011 56.8837 43.3456 56.8837 38.9077C56.8837 29.0189 48.8502 21 38.9404 21C29.0307 21 21 29.0189 21 38.9077C21 48.7966 29.0335 56.8155 38.9404 56.8155C41.8513 56.8155 44.6 56.1177 47.0326 54.8896L51.9456 59.8103C53.1927 61.2478 55.3681 61.4041 56.8082 60.162C58.2482 58.92 58.4048 56.7457 57.1605 55.3083ZM27.1516 38.9077C27.1516 32.4184 32.4393 27.1404 38.9404 27.1404C45.4416 27.1404 50.7292 32.4184 50.7292 38.9077C50.7292 45.3971 45.4416 50.6751 38.9404 50.6751C32.4393 50.6751 27.1516 45.3971 27.1516 38.9077Z"
                fill="#F53838"/>
    </symbol>

    <symbol id="control" viewBox="0 0 16 10" fill="none">
        <path d="M14 2L8 8L2 2" stroke="#F53838" stroke-width="3" stroke-linecap="round"
              stroke-linejoin="round"/>
    </symbol>

    <symbol id="decor-map" viewBox="0 0 212 290" fill="none">
        <path
                d="M21.0251 191.406C24.846 199.022 29.0207 206.357 33.4077 213.48C37.2286 219.686 41.2618 225.751 45.578 231.605C58.5974 249.307 73.5273 265.457 90.0846 280.338C91.8535 281.96 93.6225 283.582 95.4622 285.204C99.1415 288.448 102.538 290 105.934 290C109.331 290 112.798 288.378 116.548 285.063C117.397 284.358 118.175 283.582 119.024 282.877C136.714 267.291 152.634 250.153 166.361 231.393C171.102 224.905 175.631 218.276 179.805 211.364C182.282 207.274 184.688 203.113 186.952 198.881C188.862 195.355 190.631 191.829 192.329 188.303C204.5 162.913 211.505 136.043 212 106.846C212 78.4241 202.235 53.1055 181.928 32.2301C161.267 11.0725 133.884 0 106.147 0C87.8911 0 69.5648 4.79572 52.7245 14.5987C20.3883 33.57 2.55734 62.3444 0.293091 99.7228C-1.68812 131.671 6.51977 161.714 20.5298 190.277C20.6713 190.63 20.8836 190.982 21.0251 191.335V191.406ZM106.005 55.3624H106.076C131.124 55.3624 151.007 75.5326 151.007 100.71C151.007 125.112 130.558 145.071 105.722 145.071H105.58C80.8861 145 60.9324 124.83 61.0032 99.9343C61.0032 75.2505 81.1691 55.3624 106.005 55.3624Z"
                fill="#E2F2FE"/>
    </symbol>


    <!--   -->

    <symbol id="burger-menu" viewBox="0 0 31 30" fill="none">
        <path d="M3.82812 21.25H26.3281" stroke="currentColor" stroke-width="3"
              stroke-linecap="round" stroke-linejoin="round"/>
        <path d="M3.82812 15H26.3281" stroke="currentColor" stroke-width="3" stroke-linecap="round"
              stroke-linejoin="round"/>
        <path d="M3.82812 8.75H26.3281" stroke="currentColor" stroke-width="3"
              stroke-linecap="round" stroke-linejoin="round"/>
    </symbol>

    <symbol id="close-menu" viewBox="0 0 24 24" fill="none">
        <path fill-rule="evenodd" clip-rule="evenodd"
              d="M5.29289 5.29289C5.68342 4.90237 6.31658 4.90237 6.70711 5.29289L12 10.5858L17.2929 5.29289C17.6834 4.90237 18.3166 4.90237 18.7071 5.29289C19.0976 5.68342 19.0976 6.31658 18.7071 6.70711L13.4142 12L18.7071 17.2929C19.0976 17.6834 19.0976 18.3166 18.7071 18.7071C18.3166 19.0976 17.6834 19.0976 17.2929 18.7071L12 13.4142L6.70711 18.7071C6.31658 19.0976 5.68342 19.0976 5.29289 18.7071C4.90237 18.3166 4.90237 17.6834 5.29289 17.2929L10.5858 12L5.29289 6.70711C4.90237 6.31658 4.90237 5.68342 5.29289 5.29289Z"
              fill="currentColor"/>
    </symbol>

    <symbol id="decor-half-ellipse" viewBox="0 0 54 41" fill="none">
        <path
                d="M49.6611 40.2057C51.6603 36.9334 52.8278 33.2132 53.0734 29.3329C53.3189 25.4526 52.6358 21.5163 51.0771 17.8283C49.5183 14.1404 47.1255 10.7997 44.0839 8.06477C41.0423 5.32983 37.4334 3.27391 33.5363 2.05606C29.6393 0.838219 25.5585 0.491088 21.6098 1.04152C17.661 1.59196 13.9501 3.02521 10.7641 5.2304C7.57816 7.43559 5.0025 10.3536 3.2364 13.7587C1.47031 17.1638 0.561121 20.9647 0.579179 24.8675L13.0178 25.5314C13.0083 23.4765 13.487 21.4751 14.4169 19.6822C15.3469 17.8893 16.703 16.3529 18.3805 15.1918C20.0581 14.0307 22.012 13.2761 24.0911 12.9862C26.1703 12.6964 28.3189 12.8792 30.3708 13.5204C32.4228 14.1617 34.323 15.2442 35.9245 16.6842C37.526 18.1242 38.7858 19.8832 39.6066 21.825C40.4273 23.7668 40.787 25.8395 40.6577 27.8826C40.5284 29.9256 39.9137 31.8844 38.861 33.6074L49.6611 40.2057Z"
                fill="#4CCCFF"/>
    </symbol>
    <!--cta 2-->
    <symbol id="decor-triangle" viewBox="0 0 50 47" fill="none">
        <path d="M7.22041 39.8895L16.2337 8.42949L40.8584 31.4598L7.22041 39.8895Z" stroke="#4DCCFF"
              stroke-width="9"/>
    </symbol>

    <symbol id="decor-map" viewBox="0 0 77 89" fill="none">
        <path fill-rule="evenodd" clip-rule="evenodd"
              d="M2.16265 27.7561C7.68988 8.07225 28.6059 -3.21847 48.502 2.36836C68.4545 7.97103 80.4359 28.4993 74.9087 48.1832C72.1235 58.1019 65.9304 66.2973 57.8014 72.4353C48.8337 79.2053 38.6543 84.4398 27.9133 87.7757C25.4515 88.5525 23.5458 88.1281 21.6738 86.0236C14.1882 77.5697 8.22132 67.8013 4.14477 57.3685C0.394752 47.8949 -0.622519 37.6748 2.16265 27.7561ZM26.2181 35.7065C24.3665 42.3003 28.2911 48.9977 34.8883 50.8501C41.4902 52.704 48.3794 49.0432 50.231 42.4494C52.0682 35.9065 48.1625 28.9423 41.5606 27.0884C34.9634 25.2359 28.0553 29.1637 26.2181 35.7065Z"
              fill="#86DDFF"/>
    </symbol>

    <symbol id="decor-calendar" viewBox="0 0 75 81" fill="none">
        <path fill-rule="evenodd" clip-rule="evenodd"
              d="M43.897 2.16484L44.622 4.89273C54.8221 3.01855 63.2293 8.09438 66.0098 18.5705L74.1573 49.2324C77.1916 60.6537 71.8975 69.5872 60.438 72.6574L32.4436 80.1489C21.0547 83.1964 11.9104 77.9273 8.86727 66.4732L0.815121 36.1716C-1.98748 25.6274 2.57901 17.1172 12.3281 13.5366L11.6032 10.8087C11.1764 9.20866 12.0399 7.6897 13.6158 7.27018C15.1907 6.84702 16.69 7.73307 17.1168 9.33305L17.7937 11.879L39.0603 6.18644L38.3834 3.64045C37.9565 2.04048 38.821 0.525135 40.3962 0.101902C41.9351 -0.311674 43.4702 0.564867 43.897 2.16484ZM6.63144 35.8266L60.8364 21.3186L60.4998 20.0451C58.2781 12.2633 53.282 9.20026 46.1005 10.4578L46.8447 13.2585C47.2583 14.8231 46.3721 16.387 44.8322 16.7969C43.2574 17.22 41.7446 16.2986 41.331 14.7341L40.5487 11.7878L19.282 17.4804L20.0637 20.423C20.4782 21.9912 19.6269 23.542 18.051 23.9615C16.4761 24.3847 14.9646 23.4668 14.55 21.8986L13.8059 19.0979C7.00754 21.6594 4.23184 26.807 6.32873 34.696L6.63144 35.8266ZM49.8838 42.0129L49.8944 42.053C50.3728 43.7172 52.0695 44.6247 53.7107 44.1488C55.3118 43.6797 56.2313 41.9511 55.753 40.2868C55.2547 38.7058 53.6162 37.7439 52.0091 38.1757C50.3715 38.6506 49.4377 40.3401 49.8838 42.0129ZM57.1605 57.5621C55.5036 57.9642 53.8104 56.939 53.3644 55.2665C52.886 53.6022 53.8411 51.8642 55.4781 51.3855L55.514 51.376C57.1972 50.9279 58.9263 51.9436 59.3784 53.6538C59.834 55.3627 58.8394 57.1112 57.1605 57.5621ZM35.1433 45.9994C35.6576 47.6541 37.3672 48.5971 38.9955 48.0856C40.587 47.5801 41.5075 45.8552 40.9932 44.2005C40.5208 42.5736 38.8591 41.653 37.2484 42.0857C35.6204 42.597 34.6972 44.3266 35.1433 45.9994ZM42.5014 61.2896C40.8731 61.801 39.1666 60.8568 38.6492 59.2034C38.2067 57.5295 39.1268 55.8047 40.7542 55.2896C42.365 54.857 44.0303 55.7766 44.4981 57.4008C45.0166 59.0583 44.0929 60.7841 42.5014 61.2896ZM20.4212 50.055C20.9352 51.7094 22.6461 52.6563 24.2734 52.1413C25.8658 51.6394 26.7851 49.9109 26.2675 48.2571C25.7988 46.6292 24.137 45.7086 22.5227 46.1423C20.8945 46.6537 19.9751 48.3822 20.4212 50.055ZM27.7502 65.2361C26.1229 65.7511 24.4156 64.8033 23.898 63.1498C23.452 61.477 24.3749 59.7475 26.0031 59.2361C27.6139 58.8034 29.2792 59.723 29.7479 61.3509C30.2655 63.0047 29.3462 64.7332 27.7502 65.2361Z"
              fill="#86DDFF"/>
    </symbol>

    <symbol id="decor-goods" viewBox="0 0 47 41" fill="none">
        <path fill-rule="evenodd" clip-rule="evenodd"
              d="M44.4226 22.7901C44.0688 22.9861 43.6469 23.0382 43.2471 22.9296C41.7676 22.5278 40.2514 23.3674 39.8664 24.7851C39.4787 26.2126 40.3493 27.6941 41.8105 28.1078C42.6341 28.3397 43.1839 29.0897 42.9661 29.8918L41.613 34.8736C40.4741 39.0668 36.0516 41.5173 31.7334 40.3444L25.2158 38.5742C24.5419 38.3912 24.1402 37.7127 24.3179 37.0582L25.4574 32.863C25.679 32.0473 25.1934 31.2273 24.3537 30.9992C23.534 30.7766 22.68 31.2327 22.4585 32.0485L21.319 36.2437C21.1412 36.8982 20.4515 37.2802 19.7798 37.0978L6.0229 33.3613C1.72451 32.1938 -0.871004 27.8392 0.268397 23.6441L1.6215 18.6623C1.83935 17.8602 2.69302 17.4914 3.52079 17.7081C4.99251 18.0909 6.49101 17.2529 6.87871 15.8255C7.25327 14.4464 6.37853 13.0827 4.8591 12.6701C4.45923 12.5615 4.1216 12.3028 3.91555 11.955C3.70949 11.6071 3.64977 11.1947 3.75527 10.8062L5.12155 5.77585C6.25888 1.58847 10.7161 -0.879692 15.0265 0.291039L28.7634 4.0221C29.4351 4.20452 29.8368 4.88297 29.659 5.5375L28.3086 10.5095C28.0923 11.3058 28.5929 12.1508 29.4125 12.3735C30.2522 12.6015 31.0912 12.1204 31.3075 11.324L32.658 6.35203C32.8357 5.6975 33.5255 5.31551 34.1994 5.49855L40.717 7.26877C45.0352 8.44163 47.6109 12.7908 46.4714 16.9859L45.1421 21.8803C45.0366 22.2687 44.7764 22.5942 44.4226 22.7901ZM25.3771 27.2312C26.2168 27.4593 27.0557 26.9782 27.272 26.1819L29.3821 18.4131C29.5984 17.6168 29.1181 16.7773 28.2784 16.5492C27.4587 16.3266 26.5995 16.8022 26.3832 17.5985L24.2731 25.3674C24.0568 26.1637 24.5574 27.0086 25.3771 27.2312Z"
              fill="#6AD5FF"/>
    </symbol>

    <symbol id="decor-work" viewBox="0 0 67 67" fill="none">
        <path fill-rule="evenodd" clip-rule="evenodd"
              d="M21.9364 14.8934C20.3643 15.5658 19.4942 17.2303 19.7486 18.8633L32.3721 13.4637C31.3668 12.1519 29.5621 11.6315 27.9901 12.304L21.9364 14.8934ZM35.9394 11.9384L40.5852 9.95118C45.5126 7.84353 51.262 10.1883 53.3952 15.1756C53.3952 15.1756 54.1575 17.3471 55.3682 20.3072C55.4631 20.542 55.448 20.8181 55.3215 21.0352C54.5495 22.3515 53.8117 23.4818 53.7381 23.5695C50.9606 27.8479 47.2207 31.6221 42.79 34.5989C42.502 34.7951 42.1221 34.7637 41.8427 34.5517C39.4896 32.7882 36.3127 32.3435 33.4971 33.5478C30.7002 34.7442 28.7971 37.3422 28.4083 40.2814C28.3643 40.6261 28.1273 40.9157 27.7898 40.9898C22.6158 42.1185 17.3044 42.2188 12.3348 41.3076L9.41179 40.7036C9.17328 40.6652 8.96454 40.5016 8.86296 40.2641C8.27449 39.0831 6.4912 35.2384 6.4912 35.2384C4.35794 30.2512 6.63316 24.4739 11.5605 22.3663L16.1829 20.3891C15.1558 16.7548 16.8939 12.8367 20.4135 11.3313L26.4671 8.74187C29.9867 7.2364 34.0206 8.68552 35.9394 11.9384ZM56.9509 25.7081L56.8774 25.7957C53.4989 31.0054 48.7013 35.5579 43.0939 38.9959C42.3 39.476 41.2217 39.2911 40.6213 38.5365C39.2722 36.8099 37.0577 36.2401 35.0633 37.0931L35.0398 37.1032L34.9929 37.1233C32.9985 37.9764 31.8811 39.9714 32.1979 42.1396C32.3289 43.0949 31.7179 44.0024 30.8224 44.245C24.4633 45.9256 17.8575 46.2508 11.7566 45.0958C11.723 45.0821 11.4274 45.04 11.2905 45.239C11.1301 45.4481 11.252 45.7331 11.252 45.7331L16.597 57.7747C18.7302 62.7619 24.446 65.093 29.3734 62.9854L57.6237 50.9015C62.5511 48.7938 64.813 43.0503 62.6798 38.0631L57.6867 25.8709C57.6867 25.8709 57.5648 25.586 57.3029 25.5576C57.1551 25.5365 57.0245 25.6205 56.9509 25.7081ZM40.3089 44.5966C40.7356 45.594 40.2965 46.7089 39.311 47.1305C38.349 47.542 37.216 47.0995 36.7893 46.1021L35.4789 43.0385C35.0624 42.0648 35.5148 40.9161 36.4768 40.5046C37.4623 40.083 38.582 40.5593 38.9985 41.533L40.3089 44.5966Z"
              fill="#6AD5FF"/>
    </symbol>

    <!-- link icons -->

    <symbol id="icon-map-pin" viewBox="0 0 24 24" fill="none" xmlns="http://www.w3.org/2000/svg">
        <circle cx="12" cy="11" r="2" stroke="currentColor" stroke-width="2"/>
        <path
                d="M11.9999 22.0001L17.4999 16.5001C20.5374 13.4625 20.5374 8.53766 17.4999 5.5001C14.4623 2.46253 9.53742 2.46253 6.49985 5.5001C3.46229 8.53766 3.46229 13.4625 6.49985 16.5001L11.9999 22.0001Z"
                stroke="currentColor" stroke-width="2" stroke-linejoin="round"/>
    </symbol>

    <symbol id="icon-globe" viewBox="0 0 24 24" fill="none">
        <path
                d="M12 22C17.5228 22 22 17.5228 22 12C22 6.47715 17.5228 2 12 2C6.47715 2 2 6.47715 2 12C2 17.5228 6.47715 22 12 22Z"
                stroke="currentColor" stroke-width="2" stroke-linecap="round" stroke-linejoin="round"/>
        <path d="M2 12H22" stroke="currentColor" stroke-width="2" stroke-linecap="round"
              stroke-linejoin="round"/>
        <path
                d="M12 2C14.5013 4.73835 15.9228 8.29203 16 12C15.9228 15.708 14.5013 19.2616 12 22C9.49872 19.2616 8.07725 15.708 8 12C8.07725 8.29203 9.49872 4.73835 12 2V2Z"
                stroke="currentColor" stroke-width="2" stroke-linecap="round" stroke-linejoin="round"/>
    </symbol>

    <symbol id="icon-flag" viewBox="0 0 24 24" fill="none">
        <path d="M4 21V5" stroke="currentColor" stroke-width="2" stroke-linecap="round"
              stroke-linejoin="round"/>
        <path
                d="M20 15.6867C14.1818 20.2361 9.81818 11.1373 4 15.6867V4.31329C9.81818 -0.236079 14.1818 8.86266 20 4.31329V15.6867Z"
                stroke="currentColor" stroke-width="2" stroke-linecap="round" stroke-linejoin="round"/>
    </symbol>

    <symbol id="icon-lamp" viewBox="0 0 24 24" fill="none">
        <path d="M9 21H15" stroke="currentColor" stroke-width="2" stroke-linecap="round"
              stroke-linejoin="round"/>
        <path
                d="M12 3C8.68629 3 6 5.68629 6 9C6 10.3923 6.47426 11.6739 7.27004 12.692C8.14938 13.8169 9 15.0766 9 16.5045V17.0002C9 17.5525 9.44772 18.0002 10 18.0002H14C14.5523 18.0002 15 17.5525 15 17.0002V16.5045C15 15.0766 15.8506 13.8169 16.73 12.692C17.5257 11.6739 18 10.3923 18 9C18 5.68629 15.3137 3 12 3Z"
                stroke="currentColor" stroke-width="2" stroke-linecap="round" stroke-linejoin="round"/>
    </symbol>

    <symbol id="icon-square-info" viewBox="0 0 24 24" fill="none">
        <path
                d="M3 5C3 3.89543 3.89543 3 5 3H19C20.1046 3 21 3.89543 21 5V19C21 20.1046 20.1046 21 19 21H5C3.89543 21 3 20.1046 3 19V5Z"
                stroke="currentColor" stroke-width="2" stroke-linecap="round" stroke-linejoin="round"/>
        <path
                d="M13.5 8C13.5 8.82843 12.8284 9.5 12 9.5C11.1716 9.5 10.5 8.82843 10.5 8C10.5 7.17157 11.1716 6.5 12 6.5C12.8284 6.5 13.5 7.17157 13.5 8Z"
                fill="#F53838"/>
        <path d="M12 12V16" stroke="currentColor" stroke-width="2" stroke-linecap="round"
              stroke-linejoin="round"/>
    </symbol>

    <symbol id="icon-phone" viewBox="0 0 24 24" fill="none">
        <path
                d="M20.561 6.96879C19.041 13.7235 13.7235 19.041 6.96879 20.561C4.81355 21.046 3 19.2091 3 17V15.25C3 14.6977 3.4486 14.2547 3.99877 14.2063C5.08823 14.1104 6.13312 13.8593 7.11117 13.4751L8.82037 15.1843C11.6003 13.854 13.854 11.6003 15.1843 8.82037L13.4751 7.11118C13.8593 6.13313 14.1104 5.08823 14.2063 3.99877C14.2547 3.44861 14.6977 3 15.25 3H17C19.2091 3 21.046 4.81355 20.561 6.96879Z"
                stroke="currentColor" stroke-width="2" stroke-linecap="round" stroke-linejoin="round"/>
    </symbol>

    <!-- profile -->
    <symbol id="icon-account-profile" viewBox="0 0 24 24" fill="none">
        <path d="M6.125 16.625C6.125 15.1753 8.08375 14 10.5 14C12.9162 14 14.875 15.1753 14.875 16.625"
              stroke="currentColor" stroke-width="2" stroke-linecap="round" stroke-linejoin="round"/>
        <path d="M10.5 11.375C11.9497 11.375 13.125 10.1997 13.125 8.75C13.125 7.30025 11.9497 6.125 10.5 6.125C9.05025 6.125 7.875 7.30025 7.875 8.75C7.875 10.1997 9.05025 11.375 10.5 11.375Z"
              stroke="currentColor" stroke-width="2" stroke-linecap="round" stroke-linejoin="round"/>
        <path d="M10.5 18.375C14.8492 18.375 18.375 14.8492 18.375 10.5C18.375 6.15076 14.8492 2.625 10.5 2.625C6.15076 2.625 2.625 6.15076 2.625 10.5C2.625 14.8492 6.15076 18.375 10.5 18.375Z"
              stroke="currentColor" stroke-width="2" stroke-miterlimit="10" stroke-linecap="round"
              stroke-linejoin="round"/>
    </symbol>

    <symbol id="icon-account-content" viewBox="0 0 21 21" fill="none">
        <path
                d="M18.375 9.5984L11.3424 16.231C10.4809 17.0435 9.3124 17.5 8.094 17.5C6.87559 17.5 5.70709 17.0435 4.84555 16.231C3.98401 15.4184 3.5 14.3164 3.5 13.1673C3.5 12.0182 3.98401 10.9161 4.84555 10.1036L11.8781 3.47101C12.4525 2.92932 13.2315 2.625 14.0437 2.625C14.856 2.625 15.635 2.92932 16.2094 3.47101C16.7837 4.01271 17.1064 4.7474 17.1064 5.51347C17.1064 6.27955 16.7837 7.01424 16.2094 7.55594L9.16916 14.1885C8.88198 14.4594 8.49248 14.6115 8.08634 14.6115C7.68021 14.6115 7.29071 14.4594 7.00353 14.1885C6.71635 13.9177 6.55501 13.5503 6.55501 13.1673C6.55501 12.7843 6.71635 12.4169 7.00353 12.1461L13.5004 6.02589"
                stroke="currentColor" stroke-width="2" stroke-linecap="round" stroke-linejoin="round"/>
    </symbol>

    <symbol id="icon-account-saved-posts" viewBox="0 0 21 21" fill="none">
        <path
                d="M10.5 17.5C10.5 17.5 2.625 13.114 2.625 7.8508C2.625 2.58757 8.75 2.14897 10.5 6.26693C12.25 2.14897 18.375 2.58757 18.375 7.8508C18.375 13.114 10.5 17.5 10.5 17.5Z"
                stroke="currentColor" stroke-width="2" stroke-linecap="round" stroke-linejoin="round"/>
    </symbol>

    <symbol id="icon-account-security" viewBox="0 0 21 21" fill="none">
        <path
                d="M7 9.625V6.90278C7 6.00031 7.36875 5.1348 8.02513 4.49665C8.6815 3.85851 9.57174 3.5 10.5 3.5C11.4283 3.5 12.3185 3.85851 12.9749 4.49665C13.6313 5.1348 14 6.00031 14 6.90278V9.625"
                stroke="currentColor" stroke-width="2" stroke-linecap="round" stroke-linejoin="round"/>
        <path
                d="M4.375 10.5C4.375 10.0168 4.76675 9.625 5.25 9.625H15.75C16.2332 9.625 16.625 10.0168 16.625 10.5V17.5C16.625 17.9832 16.2332 18.375 15.75 18.375H5.25C4.76675 18.375 4.375 17.9832 4.375 17.5V10.5Z"
                stroke="currentColor" stroke-width="2" stroke-linecap="round" stroke-linejoin="round"/>
    </symbol>

    <symbol id="icon-account-settings" viewBox="0 0 21 21" fill="none">
        <g clip-path="url(#clip0_311_494)">
            <path
                    d="M10.5 13.125C11.9497 13.125 13.125 11.9497 13.125 10.5C13.125 9.05025 11.9497 7.875 10.5 7.875C9.05025 7.875 7.875 9.05025 7.875 10.5C7.875 11.9497 9.05025 13.125 10.5 13.125Z"
                    stroke="currentColor" stroke-width="2" stroke-linecap="round" stroke-linejoin="round"/>
            <path
                    d="M16.3864 12.8864C16.2805 13.1263 16.2489 13.3924 16.2957 13.6505C16.3425 13.9085 16.4655 14.1466 16.6489 14.3341L16.6966 14.3818C16.8445 14.5296 16.9619 14.705 17.0419 14.8982C17.122 15.0913 17.1632 15.2983 17.1632 15.5074C17.1632 15.7165 17.122 15.9235 17.0419 16.1166C16.9619 16.3097 16.8445 16.4852 16.6966 16.633C16.5488 16.7809 16.3734 16.8982 16.1802 16.9783C15.9871 17.0583 15.7801 17.0995 15.571 17.0995C15.362 17.0995 15.1549 17.0583 14.9618 16.9783C14.7687 16.8982 14.5932 16.7809 14.4455 16.633L14.3977 16.5852C14.2103 16.4018 13.9721 16.2788 13.7141 16.232C13.4561 16.1853 13.1899 16.2168 12.95 16.3227C12.7147 16.4236 12.5141 16.591 12.3727 16.8044C12.2314 17.0178 12.1556 17.2679 12.1545 17.5239V17.6591C12.1545 18.081 11.9869 18.4857 11.6886 18.784C11.3902 19.0824 10.9856 19.25 10.5636 19.25C10.1417 19.25 9.73705 19.0824 9.43869 18.784C9.14034 18.4857 8.97273 18.081 8.97273 17.6591V17.5875C8.96657 17.3242 8.88134 17.0689 8.72813 16.8546C8.57492 16.6404 8.36081 16.4773 8.11364 16.3864C7.87371 16.2805 7.60757 16.2489 7.34953 16.2957C7.09149 16.3425 6.85338 16.4655 6.66591 16.6489L6.61818 16.6966C6.47043 16.8445 6.29497 16.9619 6.10184 17.0419C5.9087 17.122 5.70168 17.1632 5.49261 17.1632C5.28354 17.1632 5.07652 17.122 4.88339 17.0419C4.69026 16.9619 4.5148 16.8445 4.36705 16.6966C4.21913 16.5488 4.10178 16.3734 4.02172 16.1802C3.94166 15.9871 3.90045 15.7801 3.90045 15.571C3.90045 15.362 3.94166 15.1549 4.02172 14.9618C4.10178 14.7687 4.21913 14.5932 4.36705 14.4455L4.41477 14.3977C4.59815 14.2103 4.72117 13.9721 4.76796 13.7141C4.81475 13.4561 4.78316 13.1899 4.67727 12.95C4.57644 12.7147 4.40901 12.5141 4.1956 12.3727C3.98218 12.2314 3.7321 12.1556 3.47614 12.1545H3.34091C2.91897 12.1545 2.51432 11.9869 2.21597 11.6886C1.91761 11.3902 1.75 10.9856 1.75 10.5636C1.75 10.1417 1.91761 9.73705 2.21597 9.43869C2.51432 9.14034 2.91897 8.97273 3.34091 8.97273H3.4125C3.67579 8.96657 3.93114 8.88134 4.14535 8.72813C4.35956 8.57492 4.52273 8.36081 4.61364 8.11364C4.71952 7.87371 4.75111 7.60757 4.70432 7.34953C4.65753 7.09149 4.53452 6.85338 4.35114 6.66591L4.30341 6.61818C4.15549 6.47043 4.03815 6.29497 3.95809 6.10184C3.87803 5.9087 3.83682 5.70168 3.83682 5.49261C3.83682 5.28354 3.87803 5.07652 3.95809 4.88339C4.03815 4.69026 4.15549 4.5148 4.30341 4.36705C4.45116 4.21913 4.62662 4.10178 4.81975 4.02172C5.01289 3.94166 5.21991 3.90045 5.42898 3.90045C5.63805 3.90045 5.84507 3.94166 6.0382 4.02172C6.23133 4.10178 6.40679 4.21913 6.55455 4.36705L6.60227 4.41477C6.78974 4.59815 7.02785 4.72117 7.2859 4.76796C7.54394 4.81475 7.81008 4.78316 8.05 4.67727H8.11364C8.34891 4.57644 8.54956 4.40901 8.69089 4.1956C8.83223 3.98218 8.90807 3.7321 8.90909 3.47614V3.34091C8.90909 2.91897 9.0767 2.51432 9.37506 2.21597C9.67341 1.91761 10.0781 1.75 10.5 1.75C10.9219 1.75 11.3266 1.91761 11.6249 2.21597C11.9233 2.51432 12.0909 2.91897 12.0909 3.34091V3.4125C12.0919 3.66847 12.1678 3.91855 12.3091 4.13196C12.4504 4.34537 12.6511 4.5128 12.8864 4.61364C13.1263 4.71952 13.3924 4.75111 13.6505 4.70432C13.9085 4.65753 14.1466 4.53452 14.3341 4.35114L14.3818 4.30341C14.5296 4.15549 14.705 4.03815 14.8982 3.95809C15.0913 3.87803 15.2983 3.83682 15.5074 3.83682C15.7165 3.83682 15.9235 3.87803 16.1166 3.95809C16.3097 4.03815 16.4852 4.15549 16.633 4.30341C16.7809 4.45116 16.8982 4.62662 16.9783 4.81975C17.0583 5.01289 17.0995 5.21991 17.0995 5.42898C17.0995 5.63805 17.0583 5.84507 16.9783 6.0382C16.8982 6.23133 16.7809 6.40679 16.633 6.55455L16.5852 6.60227C16.4018 6.78974 16.2788 7.02785 16.232 7.2859C16.1853 7.54394 16.2168 7.81008 16.3227 8.05V8.11364C16.4236 8.34891 16.591 8.54956 16.8044 8.69089C17.0178 8.83223 17.2679 8.90807 17.5239 8.90909H17.6591C18.081 8.90909 18.4857 9.0767 18.784 9.37506C19.0824 9.67341 19.25 10.0781 19.25 10.5C19.25 10.9219 19.0824 11.3266 18.784 11.6249C18.4857 11.9233 18.081 12.0909 17.6591 12.0909H17.5875C17.3315 12.0919 17.0815 12.1678 16.868 12.3091C16.6546 12.4504 16.4872 12.6511 16.3864 12.8864Z"
                    stroke="currentColor" stroke-width="2" stroke-linecap="round" stroke-linejoin="round"/>
        </g>
        <defs>
            <clipPath id="clip0_311_494">
                <rect width="21" height="21" fill="transparent"/>
            </clipPath>
        </defs>
    </symbol>

    <symbol id="icon-account-logout" viewBox="0 0 16 18" fill="none">
        <path
                d="M11 1H3.66667C2.19391 1 1 2.19391 1 3.66667V14.3333C1 15.8061 2.19391 17 3.66667 17H11M12 12L15 9M15 9L12 6M15 9H5"
                stroke="currentColor" stroke-width="2" stroke-linecap="round" stroke-linejoin="round"/>
    </symbol>

    <symbol id="icon-account-delete" viewBox="0 0 21 21" fill="none">
        <path
                d="M7.5 6.125V4.2C7.5 3.78228 7.65804 3.38168 7.93934 3.08631C8.22064 2.79094 8.60218 2.625 9 2.625H12C12.3978 2.625 12.7794 2.79094 13.0607 3.08631C13.342 3.38168 13.5 3.78228 13.5 4.2V6.125M16.625 6.125L15.75 16.8C15.75 17.2177 15.592 17.6183 15.3107 17.9137C15.0294 18.2091 14.6478 18.375 14.25 18.375H6.75C6.35218 18.375 5.97064 18.2091 5.68934 17.9137C5.40804 17.6183 5.25 17.2177 5.25 16.8L4.375 6.125H16.625Z"
                stroke="currentColor" stroke-width="2" stroke-linecap="round" stroke-linejoin="round"/>
        <path d="M3.5 6.125H5.05556H17.5" stroke="currentColor" stroke-width="2" stroke-linecap="round"
              stroke-linejoin="round"/>
    </symbol>

    <symbol id="icon-account-warning" viewBox="0 0 46 46" fill="none">
        <path
                d="M23 40.25C32.5269 40.25 40.25 32.5269 40.25 23C40.25 13.4731 32.5269 5.75 23 5.75C13.4731 5.75 5.75 13.4731 5.75 23C5.75 32.5269 13.4731 40.25 23 40.25Z"
                stroke="currentColor" stroke-width="4" stroke-miterlimit="10" stroke-linecap="round"
                stroke-linejoin="round"/>
        <path
                d="M25.875 30.6665C25.875 32.2543 24.5878 33.5415 23 33.5415C21.4122 33.5415 20.125 32.2543 20.125 30.6665C20.125 29.0787 21.4122 27.7915 23 27.7915C24.5878 27.7915 25.875 29.0787 25.875 30.6665Z"
                fill="currentColor"/>
        <path d="M23 23L23 15.3333" stroke="currentColor" stroke-width="4" stroke-linecap="round"
              stroke-linejoin="round"/>
    </symbol>

    <symbol id="icon-account-increment-photo" viewBox="0 0 24 23" fill="none">
        <path d="M12.0645 20.901H6.53225C3.47745 20.901 1 18.4255 1 15.3732V6.52781C1 3.47547 3.47745 1 6.53225 1H15.3847C18.4395 1 20.917 3.47547 20.917 6.52781V12.0556M16.4909 19.2353H22.0231M19.2587 22V16.4722M13.7785 8.13629C15.3335 9.6912 15.3335 12.2109 13.7785 13.7647C12.2223 15.3185 9.70061 15.3185 8.14446 13.7647C6.58941 12.2109 6.58941 9.6912 8.14446 8.13629C8.89101 7.38923 9.90522 6.97038 10.9615 6.97038C12.0177 6.97038 13.0319 7.38923 13.7785 8.13629Z"
              stroke="currentColor" stroke-width="2" stroke-linecap="round" stroke-linejoin="round"/>
    </symbol>

    <symbol id="icon-account-edit" width="18" height="18" viewBox="0 0 18 18" fill="none">
        <path d="M3.75 11.25L3.375 14.625L6.75 14.25L14.3358 6.66421C15.1168 5.88317 15.1168 4.61683 14.3358 3.83579L14.1642 3.66421C13.3832 2.88316 12.1168 2.88316 11.3358 3.66421L3.75 11.25Z"
              stroke="currentColor" stroke-width="2" stroke-linecap="round" stroke-linejoin="round"/>
        <path d="M10.5 4.5L13.5 7.5" stroke="currentColor" stroke-width="2" stroke-linecap="round"
              stroke-linejoin="round"/>
        <path d="M9.75 15H15.75" stroke="currentColor" stroke-width="2" stroke-linecap="round" stroke-linejoin="round"/>
    </symbol>

    <!--    share-->

    <symbol id="icon-share-edit" viewBox="0 0 24 24" fill="none">
            <path d="M16.1038 4.66848C16.3158 4.45654 16.5674 4.28843 16.8443 4.17373C17.1212 4.05903 17.418 4 17.7177
            4C18.0174 4 18.3142 4.05903 18.5911 4.17373C18.868 4.28843 19.1196 4.45654 19.3315 4.66848C19.5435 4.88041
            19.7116 5.13201 19.8263 5.40891C19.941 5.68582 20 5.9826 20 6.28232C20 6.58204 19.941 6.87882 19.8263 7.15573C19.7116
            7.43263 19.5435 7.68423 19.3315 7.89617L8.43807 18.7896L4 20L5.21038 15.5619L16.1038 4.66848Z"
                  stroke="currentColor" stroke-width="2" stroke-linecap="round" stroke-linejoin="round"/>
    </symbol>

    <symbol id="icon-share-increment" width="32" height="32" viewBox="0 0 32 32" fill="none">
        <path d="M28 16H4" stroke="currentColor" stroke-width="4" stroke-linecap="round" stroke-linejoin="round"/>
        <path d="M16 4V28.0001" stroke="currentColor" stroke-width="4" stroke-linecap="round" stroke-linejoin="round"/>
    </symbol>
</svg>